<mxfile host="app.diagrams.net" agent="Mozilla/5.0 (Windows NT 10.0; Win64; x64) AppleWebKit/537.36 (KHTML, like Gecko) Chrome/133.0.0.0 Safari/537.36" version="28.2.5">
  <diagram name="Página-1" id="xOijUINg0CkCP12dgnyZ">
    <mxGraphModel dx="3376" dy="2189" grid="1" gridSize="10" guides="1" tooltips="1" connect="1" arrows="1" fold="1" page="1" pageScale="1" pageWidth="827" pageHeight="1169" math="0" shadow="0">
      <root>
        <mxCell id="0" />
        <mxCell id="1" parent="0" />
        <mxCell id="mYBLWDvzokNKzUCA3n3M-1" value="CLIENTE" style="whiteSpace=wrap;html=1;align=center;fillColor=#ffe6cc;strokeColor=#d79b00;" vertex="1" parent="1">
          <mxGeometry x="-90" y="96.25" width="100" height="40" as="geometry" />
        </mxCell>
        <mxCell id="mYBLWDvzokNKzUCA3n3M-2" value="ANIMAL" style="whiteSpace=wrap;html=1;align=center;fillColor=#e1d5e7;strokeColor=#9673a6;" vertex="1" parent="1">
          <mxGeometry x="360" y="97.5" width="100" height="40" as="geometry" />
        </mxCell>
        <mxCell id="mYBLWDvzokNKzUCA3n3M-4" value="VETERINÁRIOS" style="whiteSpace=wrap;html=1;align=center;fillColor=#f5f5f5;fontColor=#333333;strokeColor=#666666;" vertex="1" parent="1">
          <mxGeometry x="1310" y="100" width="100" height="40" as="geometry" />
        </mxCell>
        <mxCell id="mYBLWDvzokNKzUCA3n3M-5" value="ATENDIMENTO" style="whiteSpace=wrap;html=1;align=center;fillColor=#f8cecc;strokeColor=#b85450;" vertex="1" parent="1">
          <mxGeometry x="820" y="100" width="100" height="40" as="geometry" />
        </mxCell>
        <mxCell id="mYBLWDvzokNKzUCA3n3M-6" value="PRODUTO" style="whiteSpace=wrap;html=1;align=center;fillColor=#dae8fc;strokeColor=#6c8ebf;" vertex="1" parent="1">
          <mxGeometry x="-930" y="96.25" width="100" height="40" as="geometry" />
        </mxCell>
        <mxCell id="mYBLWDvzokNKzUCA3n3M-7" value="VENDA" style="whiteSpace=wrap;html=1;align=center;fillColor=#fff2cc;strokeColor=#d6b656;" vertex="1" parent="1">
          <mxGeometry x="-520" y="96.25" width="100" height="40" as="geometry" />
        </mxCell>
        <mxCell id="mYBLWDvzokNKzUCA3n3M-8" value="possui" style="shape=rhombus;perimeter=rhombusPerimeter;whiteSpace=wrap;html=1;align=center;" vertex="1" parent="1">
          <mxGeometry x="130" y="96.25" width="80" height="40" as="geometry" />
        </mxCell>
        <mxCell id="mYBLWDvzokNKzUCA3n3M-9" value="" style="edgeStyle=entityRelationEdgeStyle;fontSize=12;html=1;endArrow=ERoneToMany;rounded=0;entryX=0;entryY=0.5;entryDx=0;entryDy=0;exitX=1;exitY=0.5;exitDx=0;exitDy=0;" edge="1" parent="1" source="mYBLWDvzokNKzUCA3n3M-8" target="mYBLWDvzokNKzUCA3n3M-2">
          <mxGeometry width="100" height="100" relative="1" as="geometry">
            <mxPoint x="180" y="267.5" as="sourcePoint" />
            <mxPoint x="280" y="167.5" as="targetPoint" />
          </mxGeometry>
        </mxCell>
        <mxCell id="mYBLWDvzokNKzUCA3n3M-12" value="(1, n)" style="edgeLabel;html=1;align=center;verticalAlign=middle;resizable=0;points=[];" vertex="1" connectable="0" parent="mYBLWDvzokNKzUCA3n3M-9">
          <mxGeometry x="-0.0242" y="-1" relative="1" as="geometry">
            <mxPoint as="offset" />
          </mxGeometry>
        </mxCell>
        <mxCell id="mYBLWDvzokNKzUCA3n3M-10" value="" style="edgeStyle=entityRelationEdgeStyle;fontSize=12;html=1;endArrow=ERmandOne;startArrow=ERmandOne;rounded=0;entryX=0;entryY=0.5;entryDx=0;entryDy=0;exitX=1;exitY=0.5;exitDx=0;exitDy=0;" edge="1" parent="1" source="mYBLWDvzokNKzUCA3n3M-1" target="mYBLWDvzokNKzUCA3n3M-8">
          <mxGeometry width="100" height="100" relative="1" as="geometry">
            <mxPoint y="236.25" as="sourcePoint" />
            <mxPoint x="100" y="136.25" as="targetPoint" />
          </mxGeometry>
        </mxCell>
        <mxCell id="mYBLWDvzokNKzUCA3n3M-11" value="(1, 1)" style="edgeLabel;html=1;align=center;verticalAlign=middle;resizable=0;points=[];" vertex="1" connectable="0" parent="mYBLWDvzokNKzUCA3n3M-10">
          <mxGeometry x="-0.0222" y="-1" relative="1" as="geometry">
            <mxPoint as="offset" />
          </mxGeometry>
        </mxCell>
        <mxCell id="mYBLWDvzokNKzUCA3n3M-13" value="registra" style="shape=rhombus;perimeter=rhombusPerimeter;whiteSpace=wrap;html=1;align=center;" vertex="1" parent="1">
          <mxGeometry x="610" y="100" width="80" height="40" as="geometry" />
        </mxCell>
        <mxCell id="mYBLWDvzokNKzUCA3n3M-14" value="" style="edgeStyle=entityRelationEdgeStyle;fontSize=12;html=1;endArrow=ERzeroToMany;endFill=1;rounded=0;entryX=0;entryY=0.5;entryDx=0;entryDy=0;exitX=1;exitY=0.5;exitDx=0;exitDy=0;" edge="1" parent="1" source="mYBLWDvzokNKzUCA3n3M-13" target="mYBLWDvzokNKzUCA3n3M-5">
          <mxGeometry width="100" height="100" relative="1" as="geometry">
            <mxPoint x="499.99999999999955" y="260" as="sourcePoint" />
            <mxPoint x="719.9999999999995" y="220" as="targetPoint" />
          </mxGeometry>
        </mxCell>
        <mxCell id="mYBLWDvzokNKzUCA3n3M-15" value="(0, n)" style="edgeLabel;html=1;align=center;verticalAlign=middle;resizable=0;points=[];" vertex="1" connectable="0" parent="mYBLWDvzokNKzUCA3n3M-14">
          <mxGeometry x="-0.0061" relative="1" as="geometry">
            <mxPoint as="offset" />
          </mxGeometry>
        </mxCell>
        <mxCell id="mYBLWDvzokNKzUCA3n3M-16" value="" style="edgeStyle=entityRelationEdgeStyle;fontSize=12;html=1;endArrow=ERoneToMany;rounded=0;entryX=1;entryY=0.5;entryDx=0;entryDy=0;exitX=0;exitY=0.5;exitDx=0;exitDy=0;" edge="1" parent="1" source="mYBLWDvzokNKzUCA3n3M-13" target="mYBLWDvzokNKzUCA3n3M-2">
          <mxGeometry width="100" height="100" relative="1" as="geometry">
            <mxPoint x="609.9999999999995" y="190" as="sourcePoint" />
            <mxPoint x="409.99999999999955" y="230" as="targetPoint" />
          </mxGeometry>
        </mxCell>
        <mxCell id="mYBLWDvzokNKzUCA3n3M-17" value="(1, n)" style="edgeLabel;html=1;align=center;verticalAlign=middle;resizable=0;points=[];" vertex="1" connectable="0" parent="mYBLWDvzokNKzUCA3n3M-16">
          <mxGeometry x="0.0056" y="2" relative="1" as="geometry">
            <mxPoint as="offset" />
          </mxGeometry>
        </mxCell>
        <mxCell id="mYBLWDvzokNKzUCA3n3M-18" style="edgeStyle=orthogonalEdgeStyle;rounded=0;orthogonalLoop=1;jettySize=auto;html=1;exitX=0.5;exitY=1;exitDx=0;exitDy=0;" edge="1" parent="1" source="mYBLWDvzokNKzUCA3n3M-8" target="mYBLWDvzokNKzUCA3n3M-8">
          <mxGeometry relative="1" as="geometry" />
        </mxCell>
        <mxCell id="mYBLWDvzokNKzUCA3n3M-19" value="associa" style="shape=rhombus;perimeter=rhombusPerimeter;whiteSpace=wrap;html=1;align=center;" vertex="1" parent="1">
          <mxGeometry x="-290" y="96.25" width="80" height="40" as="geometry" />
        </mxCell>
        <mxCell id="mYBLWDvzokNKzUCA3n3M-20" value="" style="edgeStyle=entityRelationEdgeStyle;fontSize=12;html=1;endArrow=ERmandOne;startArrow=ERmandOne;rounded=0;entryX=0;entryY=0.5;entryDx=0;entryDy=0;exitX=1;exitY=0.5;exitDx=0;exitDy=0;" edge="1" parent="1" source="mYBLWDvzokNKzUCA3n3M-19" target="mYBLWDvzokNKzUCA3n3M-1">
          <mxGeometry width="100" height="100" relative="1" as="geometry">
            <mxPoint x="-260" y="215.54000000000002" as="sourcePoint" />
            <mxPoint x="-39.99999999999977" y="215.54000000000002" as="targetPoint" />
          </mxGeometry>
        </mxCell>
        <mxCell id="mYBLWDvzokNKzUCA3n3M-21" value="(1, 1)" style="edgeLabel;html=1;align=center;verticalAlign=middle;resizable=0;points=[];" vertex="1" connectable="0" parent="mYBLWDvzokNKzUCA3n3M-20">
          <mxGeometry x="0.0074" y="-1" relative="1" as="geometry">
            <mxPoint as="offset" />
          </mxGeometry>
        </mxCell>
        <mxCell id="mYBLWDvzokNKzUCA3n3M-22" value="" style="edgeStyle=entityRelationEdgeStyle;fontSize=12;html=1;endArrow=ERoneToMany;rounded=0;entryX=1;entryY=0.5;entryDx=0;entryDy=0;exitX=0;exitY=0.5;exitDx=0;exitDy=0;" edge="1" parent="1" source="mYBLWDvzokNKzUCA3n3M-19" target="mYBLWDvzokNKzUCA3n3M-7">
          <mxGeometry width="100" height="100" relative="1" as="geometry">
            <mxPoint x="-220" y="196.25" as="sourcePoint" />
            <mxPoint x="-450" y="166.25" as="targetPoint" />
          </mxGeometry>
        </mxCell>
        <mxCell id="mYBLWDvzokNKzUCA3n3M-23" value="(1, n)" style="edgeLabel;html=1;align=center;verticalAlign=middle;resizable=0;points=[];" vertex="1" connectable="0" parent="mYBLWDvzokNKzUCA3n3M-22">
          <mxGeometry x="-0.0167" y="1" relative="1" as="geometry">
            <mxPoint as="offset" />
          </mxGeometry>
        </mxCell>
        <mxCell id="mYBLWDvzokNKzUCA3n3M-24" value="realiza" style="shape=rhombus;perimeter=rhombusPerimeter;whiteSpace=wrap;html=1;align=center;" vertex="1" parent="1">
          <mxGeometry x="1090" y="100" width="80" height="40" as="geometry" />
        </mxCell>
        <mxCell id="mYBLWDvzokNKzUCA3n3M-26" value="" style="edgeStyle=entityRelationEdgeStyle;fontSize=12;html=1;endArrow=ERoneToMany;rounded=0;entryX=1;entryY=0.5;entryDx=0;entryDy=0;exitX=0;exitY=0.5;exitDx=0;exitDy=0;" edge="1" parent="1" source="mYBLWDvzokNKzUCA3n3M-24" target="mYBLWDvzokNKzUCA3n3M-5">
          <mxGeometry width="100" height="100" relative="1" as="geometry">
            <mxPoint x="1019.9999999999995" y="200" as="sourcePoint" />
            <mxPoint x="759.9999999999995" y="240" as="targetPoint" />
          </mxGeometry>
        </mxCell>
        <mxCell id="mYBLWDvzokNKzUCA3n3M-27" value="(1, n)" style="edgeLabel;html=1;align=center;verticalAlign=middle;resizable=0;points=[];" vertex="1" connectable="0" parent="mYBLWDvzokNKzUCA3n3M-26">
          <mxGeometry x="0.0242" y="-2" relative="1" as="geometry">
            <mxPoint as="offset" />
          </mxGeometry>
        </mxCell>
        <mxCell id="mYBLWDvzokNKzUCA3n3M-28" value="" style="edgeStyle=entityRelationEdgeStyle;fontSize=12;html=1;endArrow=ERmandOne;startArrow=ERmandOne;rounded=0;entryX=1;entryY=0.5;entryDx=0;entryDy=0;exitX=0;exitY=0.5;exitDx=0;exitDy=0;" edge="1" parent="1" source="mYBLWDvzokNKzUCA3n3M-4" target="mYBLWDvzokNKzUCA3n3M-24">
          <mxGeometry width="100" height="100" relative="1" as="geometry">
            <mxPoint x="1280" y="180" as="sourcePoint" />
            <mxPoint x="1049.9999999999995" y="220" as="targetPoint" />
          </mxGeometry>
        </mxCell>
        <mxCell id="mYBLWDvzokNKzUCA3n3M-29" value="(1, 1)" style="edgeLabel;html=1;align=center;verticalAlign=middle;resizable=0;points=[];" vertex="1" connectable="0" parent="mYBLWDvzokNKzUCA3n3M-28">
          <mxGeometry x="-0.0151" y="1" relative="1" as="geometry">
            <mxPoint as="offset" />
          </mxGeometry>
        </mxCell>
        <mxCell id="mYBLWDvzokNKzUCA3n3M-30" value="pode" style="shape=rhombus;perimeter=rhombusPerimeter;whiteSpace=wrap;html=1;align=center;" vertex="1" parent="1">
          <mxGeometry x="-730" y="96.25" width="80" height="40" as="geometry" />
        </mxCell>
        <mxCell id="mYBLWDvzokNKzUCA3n3M-32" value="" style="edgeStyle=entityRelationEdgeStyle;fontSize=12;html=1;endArrow=ERoneToMany;rounded=0;entryX=0;entryY=0.5;entryDx=0;entryDy=0;exitX=1;exitY=0.5;exitDx=0;exitDy=0;" edge="1" parent="1" source="mYBLWDvzokNKzUCA3n3M-30" target="mYBLWDvzokNKzUCA3n3M-7">
          <mxGeometry width="100" height="100" relative="1" as="geometry">
            <mxPoint x="-815" y="136.25" as="sourcePoint" />
            <mxPoint x="-585" y="86.25" as="targetPoint" />
          </mxGeometry>
        </mxCell>
        <mxCell id="mYBLWDvzokNKzUCA3n3M-33" value="(1, n)" style="edgeLabel;html=1;align=center;verticalAlign=middle;resizable=0;points=[];" vertex="1" connectable="0" parent="mYBLWDvzokNKzUCA3n3M-32">
          <mxGeometry x="0.0051" y="2" relative="1" as="geometry">
            <mxPoint as="offset" />
          </mxGeometry>
        </mxCell>
        <mxCell id="mYBLWDvzokNKzUCA3n3M-34" value="" style="edgeStyle=entityRelationEdgeStyle;fontSize=12;html=1;endArrow=ERmandOne;startArrow=ERmandOne;rounded=0;entryX=0;entryY=0.5;entryDx=0;entryDy=0;exitX=1;exitY=0.5;exitDx=0;exitDy=0;" edge="1" parent="1" source="mYBLWDvzokNKzUCA3n3M-6" target="mYBLWDvzokNKzUCA3n3M-30">
          <mxGeometry width="100" height="100" relative="1" as="geometry">
            <mxPoint x="-857" y="211.25" as="sourcePoint" />
            <mxPoint x="-690" y="221.25" as="targetPoint" />
          </mxGeometry>
        </mxCell>
        <mxCell id="mYBLWDvzokNKzUCA3n3M-35" value="(1, 1)" style="edgeLabel;html=1;align=center;verticalAlign=middle;resizable=0;points=[];" vertex="1" connectable="0" parent="mYBLWDvzokNKzUCA3n3M-34">
          <mxGeometry x="0.0167" relative="1" as="geometry">
            <mxPoint as="offset" />
          </mxGeometry>
        </mxCell>
        <mxCell id="mYBLWDvzokNKzUCA3n3M-43" style="edgeStyle=orthogonalEdgeStyle;shape=connector;rounded=0;orthogonalLoop=1;jettySize=auto;html=1;entryX=0.25;entryY=1;entryDx=0;entryDy=0;strokeColor=default;align=center;verticalAlign=middle;fontFamily=Helvetica;fontSize=11;fontColor=default;labelBackgroundColor=default;endArrow=none;endFill=0;" edge="1" parent="1" source="mYBLWDvzokNKzUCA3n3M-37" target="mYBLWDvzokNKzUCA3n3M-1">
          <mxGeometry relative="1" as="geometry" />
        </mxCell>
        <mxCell id="mYBLWDvzokNKzUCA3n3M-37" value="Nome" style="ellipse;whiteSpace=wrap;html=1;align=center;" vertex="1" parent="1">
          <mxGeometry x="-120" y="170" width="50" height="30" as="geometry" />
        </mxCell>
        <mxCell id="mYBLWDvzokNKzUCA3n3M-41" style="edgeStyle=orthogonalEdgeStyle;rounded=0;orthogonalLoop=1;jettySize=auto;html=1;entryX=0.75;entryY=0;entryDx=0;entryDy=0;endArrow=none;endFill=0;" edge="1" parent="1" source="mYBLWDvzokNKzUCA3n3M-38" target="mYBLWDvzokNKzUCA3n3M-1">
          <mxGeometry relative="1" as="geometry">
            <mxPoint x="-40" y="21.999999999999773" as="sourcePoint" />
            <mxPoint x="-40" y="98.25" as="targetPoint" />
          </mxGeometry>
        </mxCell>
        <mxCell id="mYBLWDvzokNKzUCA3n3M-42" style="edgeStyle=orthogonalEdgeStyle;shape=connector;rounded=0;orthogonalLoop=1;jettySize=auto;html=1;entryX=0.5;entryY=1;entryDx=0;entryDy=0;strokeColor=default;align=center;verticalAlign=middle;fontFamily=Helvetica;fontSize=11;fontColor=default;labelBackgroundColor=default;endArrow=none;endFill=0;" edge="1" parent="1" source="mYBLWDvzokNKzUCA3n3M-39" target="mYBLWDvzokNKzUCA3n3M-1">
          <mxGeometry relative="1" as="geometry" />
        </mxCell>
        <mxCell id="mYBLWDvzokNKzUCA3n3M-39" value="CPF" style="ellipse;whiteSpace=wrap;html=1;align=center;" vertex="1" parent="1">
          <mxGeometry x="-65" y="190" width="50" height="30" as="geometry" />
        </mxCell>
        <mxCell id="mYBLWDvzokNKzUCA3n3M-44" style="edgeStyle=orthogonalEdgeStyle;shape=connector;rounded=0;orthogonalLoop=1;jettySize=auto;html=1;entryX=0.75;entryY=1;entryDx=0;entryDy=0;strokeColor=default;align=center;verticalAlign=middle;fontFamily=Helvetica;fontSize=11;fontColor=default;labelBackgroundColor=default;endArrow=none;endFill=0;" edge="1" parent="1" source="mYBLWDvzokNKzUCA3n3M-40" target="mYBLWDvzokNKzUCA3n3M-1">
          <mxGeometry relative="1" as="geometry" />
        </mxCell>
        <mxCell id="mYBLWDvzokNKzUCA3n3M-40" value="Endereco" style="ellipse;whiteSpace=wrap;html=1;align=center;" vertex="1" parent="1">
          <mxGeometry x="-10" y="170" width="60" height="30" as="geometry" />
        </mxCell>
        <mxCell id="mYBLWDvzokNKzUCA3n3M-38" value="Codigo" style="ellipse;whiteSpace=wrap;html=1;align=center;fontStyle=4;" vertex="1" parent="1">
          <mxGeometry x="-40" width="50" height="30" as="geometry" />
        </mxCell>
        <mxCell id="mYBLWDvzokNKzUCA3n3M-58" style="edgeStyle=orthogonalEdgeStyle;shape=connector;rounded=0;orthogonalLoop=1;jettySize=auto;html=1;entryX=0.25;entryY=0;entryDx=0;entryDy=0;strokeColor=default;align=center;verticalAlign=middle;fontFamily=Helvetica;fontSize=11;fontColor=default;labelBackgroundColor=default;endArrow=none;endFill=0;" edge="1" parent="1" source="mYBLWDvzokNKzUCA3n3M-53" target="mYBLWDvzokNKzUCA3n3M-2">
          <mxGeometry relative="1" as="geometry" />
        </mxCell>
        <mxCell id="mYBLWDvzokNKzUCA3n3M-53" value="Codigo" style="ellipse;whiteSpace=wrap;html=1;align=center;fontStyle=4;" vertex="1" parent="1">
          <mxGeometry x="320" y="20" width="50" height="30" as="geometry" />
        </mxCell>
        <mxCell id="mYBLWDvzokNKzUCA3n3M-59" style="edgeStyle=orthogonalEdgeStyle;shape=connector;rounded=0;orthogonalLoop=1;jettySize=auto;html=1;entryX=0.5;entryY=0;entryDx=0;entryDy=0;strokeColor=default;align=center;verticalAlign=middle;fontFamily=Helvetica;fontSize=11;fontColor=default;labelBackgroundColor=default;endArrow=none;endFill=0;" edge="1" parent="1" source="mYBLWDvzokNKzUCA3n3M-54" target="mYBLWDvzokNKzUCA3n3M-2">
          <mxGeometry relative="1" as="geometry" />
        </mxCell>
        <mxCell id="mYBLWDvzokNKzUCA3n3M-54" value="Nome" style="ellipse;whiteSpace=wrap;html=1;align=center;" vertex="1" parent="1">
          <mxGeometry x="380" y="10" width="60" height="30" as="geometry" />
        </mxCell>
        <mxCell id="mYBLWDvzokNKzUCA3n3M-60" style="edgeStyle=orthogonalEdgeStyle;shape=connector;rounded=0;orthogonalLoop=1;jettySize=auto;html=1;entryX=0.75;entryY=0;entryDx=0;entryDy=0;strokeColor=default;align=center;verticalAlign=middle;fontFamily=Helvetica;fontSize=11;fontColor=default;labelBackgroundColor=default;endArrow=none;endFill=0;" edge="1" parent="1" source="mYBLWDvzokNKzUCA3n3M-55" target="mYBLWDvzokNKzUCA3n3M-2">
          <mxGeometry relative="1" as="geometry" />
        </mxCell>
        <mxCell id="mYBLWDvzokNKzUCA3n3M-55" value="Especie" style="ellipse;whiteSpace=wrap;html=1;align=center;" vertex="1" parent="1">
          <mxGeometry x="450" y="20" width="60" height="30" as="geometry" />
        </mxCell>
        <mxCell id="mYBLWDvzokNKzUCA3n3M-61" style="edgeStyle=orthogonalEdgeStyle;shape=connector;rounded=0;orthogonalLoop=1;jettySize=auto;html=1;entryX=0.25;entryY=1;entryDx=0;entryDy=0;strokeColor=default;align=center;verticalAlign=middle;fontFamily=Helvetica;fontSize=11;fontColor=default;labelBackgroundColor=default;endArrow=none;endFill=0;" edge="1" parent="1" source="mYBLWDvzokNKzUCA3n3M-56" target="mYBLWDvzokNKzUCA3n3M-2">
          <mxGeometry relative="1" as="geometry" />
        </mxCell>
        <mxCell id="mYBLWDvzokNKzUCA3n3M-56" value="Raça" style="ellipse;whiteSpace=wrap;html=1;align=center;" vertex="1" parent="1">
          <mxGeometry x="340" y="190" width="60" height="30" as="geometry" />
        </mxCell>
        <mxCell id="mYBLWDvzokNKzUCA3n3M-62" style="edgeStyle=orthogonalEdgeStyle;shape=connector;rounded=0;orthogonalLoop=1;jettySize=auto;html=1;entryX=0.75;entryY=1;entryDx=0;entryDy=0;strokeColor=default;align=center;verticalAlign=middle;fontFamily=Helvetica;fontSize=11;fontColor=default;labelBackgroundColor=default;endArrow=none;endFill=0;" edge="1" parent="1" source="mYBLWDvzokNKzUCA3n3M-57" target="mYBLWDvzokNKzUCA3n3M-2">
          <mxGeometry relative="1" as="geometry" />
        </mxCell>
        <mxCell id="mYBLWDvzokNKzUCA3n3M-57" value="Nascimento" style="ellipse;whiteSpace=wrap;html=1;align=center;" vertex="1" parent="1">
          <mxGeometry x="414" y="190" width="80" height="30" as="geometry" />
        </mxCell>
        <mxCell id="mYBLWDvzokNKzUCA3n3M-68" style="edgeStyle=orthogonalEdgeStyle;shape=connector;rounded=0;orthogonalLoop=1;jettySize=auto;html=1;entryX=0.75;entryY=0;entryDx=0;entryDy=0;strokeColor=default;align=center;verticalAlign=middle;fontFamily=Helvetica;fontSize=11;fontColor=default;labelBackgroundColor=default;endArrow=none;endFill=0;" edge="1" parent="1" source="mYBLWDvzokNKzUCA3n3M-63" target="mYBLWDvzokNKzUCA3n3M-4">
          <mxGeometry relative="1" as="geometry" />
        </mxCell>
        <mxCell id="mYBLWDvzokNKzUCA3n3M-63" value="Codigo" style="ellipse;whiteSpace=wrap;html=1;align=center;fontStyle=4;fontFamily=Helvetica;fontSize=11;fontColor=default;labelBackgroundColor=default;" vertex="1" parent="1">
          <mxGeometry x="1430" y="50" width="50" height="30" as="geometry" />
        </mxCell>
        <mxCell id="mYBLWDvzokNKzUCA3n3M-67" style="edgeStyle=orthogonalEdgeStyle;shape=connector;rounded=0;orthogonalLoop=1;jettySize=auto;html=1;entryX=1;entryY=0.5;entryDx=0;entryDy=0;strokeColor=default;align=center;verticalAlign=middle;fontFamily=Helvetica;fontSize=11;fontColor=default;labelBackgroundColor=default;endArrow=none;endFill=0;" edge="1" parent="1" source="mYBLWDvzokNKzUCA3n3M-64" target="mYBLWDvzokNKzUCA3n3M-4">
          <mxGeometry relative="1" as="geometry" />
        </mxCell>
        <mxCell id="mYBLWDvzokNKzUCA3n3M-64" value="Nome" style="ellipse;whiteSpace=wrap;html=1;align=center;fontFamily=Helvetica;fontSize=11;fontColor=default;labelBackgroundColor=default;" vertex="1" parent="1">
          <mxGeometry x="1440" y="130" width="50" height="30" as="geometry" />
        </mxCell>
        <mxCell id="mYBLWDvzokNKzUCA3n3M-69" style="edgeStyle=orthogonalEdgeStyle;shape=connector;rounded=0;orthogonalLoop=1;jettySize=auto;html=1;entryX=0.75;entryY=1;entryDx=0;entryDy=0;strokeColor=default;align=center;verticalAlign=middle;fontFamily=Helvetica;fontSize=11;fontColor=default;labelBackgroundColor=default;endArrow=none;endFill=0;" edge="1" parent="1" source="mYBLWDvzokNKzUCA3n3M-65" target="mYBLWDvzokNKzUCA3n3M-4">
          <mxGeometry relative="1" as="geometry" />
        </mxCell>
        <mxCell id="mYBLWDvzokNKzUCA3n3M-65" value="Telefone" style="ellipse;whiteSpace=wrap;html=1;align=center;fontFamily=Helvetica;fontSize=11;fontColor=default;labelBackgroundColor=default;" vertex="1" parent="1">
          <mxGeometry x="1370" y="185" width="60" height="30" as="geometry" />
        </mxCell>
        <mxCell id="mYBLWDvzokNKzUCA3n3M-70" style="edgeStyle=orthogonalEdgeStyle;shape=connector;rounded=0;orthogonalLoop=1;jettySize=auto;html=1;entryX=0.25;entryY=1;entryDx=0;entryDy=0;strokeColor=default;align=center;verticalAlign=middle;fontFamily=Helvetica;fontSize=11;fontColor=default;labelBackgroundColor=default;endArrow=none;endFill=0;" edge="1" parent="1" source="mYBLWDvzokNKzUCA3n3M-66" target="mYBLWDvzokNKzUCA3n3M-4">
          <mxGeometry relative="1" as="geometry" />
        </mxCell>
        <mxCell id="mYBLWDvzokNKzUCA3n3M-66" value="Especialidade" style="ellipse;whiteSpace=wrap;html=1;align=center;fontFamily=Helvetica;fontSize=11;fontColor=default;labelBackgroundColor=default;" vertex="1" parent="1">
          <mxGeometry x="1250" y="180" width="90" height="40" as="geometry" />
        </mxCell>
        <mxCell id="mYBLWDvzokNKzUCA3n3M-78" style="edgeStyle=orthogonalEdgeStyle;shape=connector;rounded=0;orthogonalLoop=1;jettySize=auto;html=1;entryX=0.25;entryY=0;entryDx=0;entryDy=0;strokeColor=default;align=center;verticalAlign=middle;fontFamily=Helvetica;fontSize=11;fontColor=default;labelBackgroundColor=default;endArrow=none;endFill=0;" edge="1" parent="1" source="mYBLWDvzokNKzUCA3n3M-76" target="mYBLWDvzokNKzUCA3n3M-5">
          <mxGeometry relative="1" as="geometry" />
        </mxCell>
        <mxCell id="mYBLWDvzokNKzUCA3n3M-76" value="Diagnostico" style="ellipse;whiteSpace=wrap;html=1;align=center;fontFamily=Helvetica;fontSize=11;fontColor=default;labelBackgroundColor=default;" vertex="1" parent="1">
          <mxGeometry x="770" y="20" width="70" height="30" as="geometry" />
        </mxCell>
        <mxCell id="mYBLWDvzokNKzUCA3n3M-79" style="edgeStyle=orthogonalEdgeStyle;shape=connector;rounded=0;orthogonalLoop=1;jettySize=auto;html=1;entryX=0.75;entryY=0;entryDx=0;entryDy=0;strokeColor=default;align=center;verticalAlign=middle;fontFamily=Helvetica;fontSize=11;fontColor=default;labelBackgroundColor=default;endArrow=none;endFill=0;" edge="1" parent="1" source="mYBLWDvzokNKzUCA3n3M-77" target="mYBLWDvzokNKzUCA3n3M-5">
          <mxGeometry relative="1" as="geometry" />
        </mxCell>
        <mxCell id="mYBLWDvzokNKzUCA3n3M-77" value="Observacoes" style="ellipse;whiteSpace=wrap;html=1;align=center;fontFamily=Helvetica;fontSize=11;fontColor=default;labelBackgroundColor=default;" vertex="1" parent="1">
          <mxGeometry x="900" y="15" width="80" height="30" as="geometry" />
        </mxCell>
        <mxCell id="mYBLWDvzokNKzUCA3n3M-84" style="edgeStyle=orthogonalEdgeStyle;shape=connector;rounded=0;orthogonalLoop=1;jettySize=auto;html=1;entryX=0;entryY=0.5;entryDx=0;entryDy=0;strokeColor=default;align=center;verticalAlign=middle;fontFamily=Helvetica;fontSize=11;fontColor=default;labelBackgroundColor=default;endArrow=none;endFill=0;" edge="1" parent="1" source="mYBLWDvzokNKzUCA3n3M-80" target="mYBLWDvzokNKzUCA3n3M-6">
          <mxGeometry relative="1" as="geometry" />
        </mxCell>
        <mxCell id="mYBLWDvzokNKzUCA3n3M-80" value="Codigo" style="ellipse;whiteSpace=wrap;html=1;align=center;fontStyle=4;fontFamily=Helvetica;fontSize=11;fontColor=default;labelBackgroundColor=default;" vertex="1" parent="1">
          <mxGeometry x="-1030" y="101.25" width="50" height="30" as="geometry" />
        </mxCell>
        <mxCell id="mYBLWDvzokNKzUCA3n3M-86" style="edgeStyle=orthogonalEdgeStyle;shape=connector;rounded=0;orthogonalLoop=1;jettySize=auto;html=1;entryX=0.25;entryY=0;entryDx=0;entryDy=0;strokeColor=default;align=center;verticalAlign=middle;fontFamily=Helvetica;fontSize=11;fontColor=default;labelBackgroundColor=default;endArrow=none;endFill=0;" edge="1" parent="1" source="mYBLWDvzokNKzUCA3n3M-81" target="mYBLWDvzokNKzUCA3n3M-6">
          <mxGeometry relative="1" as="geometry" />
        </mxCell>
        <mxCell id="mYBLWDvzokNKzUCA3n3M-81" value="Nome" style="ellipse;whiteSpace=wrap;html=1;align=center;fontFamily=Helvetica;fontSize=11;fontColor=default;labelBackgroundColor=default;" vertex="1" parent="1">
          <mxGeometry x="-1000" y="40" width="50" height="30" as="geometry" />
        </mxCell>
        <mxCell id="mYBLWDvzokNKzUCA3n3M-85" style="edgeStyle=orthogonalEdgeStyle;shape=connector;rounded=0;orthogonalLoop=1;jettySize=auto;html=1;entryX=0.25;entryY=1;entryDx=0;entryDy=0;strokeColor=default;align=center;verticalAlign=middle;fontFamily=Helvetica;fontSize=11;fontColor=default;labelBackgroundColor=default;endArrow=none;endFill=0;" edge="1" parent="1" source="mYBLWDvzokNKzUCA3n3M-82" target="mYBLWDvzokNKzUCA3n3M-6">
          <mxGeometry relative="1" as="geometry" />
        </mxCell>
        <mxCell id="mYBLWDvzokNKzUCA3n3M-82" value="Preco" style="ellipse;whiteSpace=wrap;html=1;align=center;fontFamily=Helvetica;fontSize=11;fontColor=default;labelBackgroundColor=default;" vertex="1" parent="1">
          <mxGeometry x="-1000" y="150" width="50" height="30" as="geometry" />
        </mxCell>
        <mxCell id="mYBLWDvzokNKzUCA3n3M-87" style="edgeStyle=orthogonalEdgeStyle;shape=connector;rounded=0;orthogonalLoop=1;jettySize=auto;html=1;entryX=0.5;entryY=1;entryDx=0;entryDy=0;strokeColor=default;align=center;verticalAlign=middle;fontFamily=Helvetica;fontSize=11;fontColor=default;labelBackgroundColor=default;endArrow=none;endFill=0;" edge="1" parent="1" source="mYBLWDvzokNKzUCA3n3M-83" target="mYBLWDvzokNKzUCA3n3M-6">
          <mxGeometry relative="1" as="geometry" />
        </mxCell>
        <mxCell id="mYBLWDvzokNKzUCA3n3M-83" value="Quantidade" style="ellipse;whiteSpace=wrap;html=1;align=center;fontFamily=Helvetica;fontSize=11;fontColor=default;labelBackgroundColor=default;" vertex="1" parent="1">
          <mxGeometry x="-915" y="200" width="70" height="30" as="geometry" />
        </mxCell>
        <mxCell id="mYBLWDvzokNKzUCA3n3M-91" style="edgeStyle=orthogonalEdgeStyle;shape=connector;rounded=0;orthogonalLoop=1;jettySize=auto;html=1;entryX=0.25;entryY=0;entryDx=0;entryDy=0;strokeColor=default;align=center;verticalAlign=middle;fontFamily=Helvetica;fontSize=11;fontColor=default;labelBackgroundColor=default;endArrow=none;endFill=0;" edge="1" parent="1" source="mYBLWDvzokNKzUCA3n3M-88" target="mYBLWDvzokNKzUCA3n3M-7">
          <mxGeometry relative="1" as="geometry" />
        </mxCell>
        <mxCell id="mYBLWDvzokNKzUCA3n3M-88" value="Data" style="ellipse;whiteSpace=wrap;html=1;align=center;fontFamily=Helvetica;fontSize=11;fontColor=default;labelBackgroundColor=default;" vertex="1" parent="1">
          <mxGeometry x="-550" y="10" width="50" height="35" as="geometry" />
        </mxCell>
        <mxCell id="mYBLWDvzokNKzUCA3n3M-95" style="edgeStyle=orthogonalEdgeStyle;shape=connector;rounded=0;orthogonalLoop=1;jettySize=auto;html=1;entryX=0.75;entryY=0;entryDx=0;entryDy=0;strokeColor=default;align=center;verticalAlign=middle;fontFamily=Helvetica;fontSize=11;fontColor=default;labelBackgroundColor=default;endArrow=none;endFill=0;" edge="1" parent="1" source="mYBLWDvzokNKzUCA3n3M-89" target="mYBLWDvzokNKzUCA3n3M-7">
          <mxGeometry relative="1" as="geometry" />
        </mxCell>
        <mxCell id="mYBLWDvzokNKzUCA3n3M-89" value="Quantidade" style="ellipse;whiteSpace=wrap;html=1;align=center;fontFamily=Helvetica;fontSize=11;fontColor=default;labelBackgroundColor=default;" vertex="1" parent="1">
          <mxGeometry x="-445" y="10" width="80" height="35" as="geometry" />
        </mxCell>
        <mxCell id="mYBLWDvzokNKzUCA3n3M-92" value="&lt;b&gt;PRODUTO &lt;/b&gt;(&lt;u&gt;CodProd&lt;/u&gt;, NomeProd, PrecoProd, QtdProd, QtdVenda)" style="text;html=1;align=center;verticalAlign=middle;resizable=0;points=[];autosize=1;strokeColor=none;fillColor=none;fontFamily=Helvetica;fontSize=11;fontColor=default;labelBackgroundColor=default;" vertex="1" parent="1">
          <mxGeometry x="-629.5" y="220" width="350" height="30" as="geometry" />
        </mxCell>
        <mxCell id="mYBLWDvzokNKzUCA3n3M-93" value="&lt;b&gt;VENDA &lt;/b&gt;(&lt;u&gt;CodVenda&lt;/u&gt;, DataVenda, QtdVenda)" style="text;html=1;align=center;verticalAlign=middle;resizable=0;points=[];autosize=1;strokeColor=none;fillColor=none;fontFamily=Helvetica;fontSize=11;fontColor=default;labelBackgroundColor=default;" vertex="1" parent="1">
          <mxGeometry x="-630.5" y="240" width="240" height="30" as="geometry" />
        </mxCell>
        <mxCell id="mYBLWDvzokNKzUCA3n3M-96" style="edgeStyle=orthogonalEdgeStyle;shape=connector;rounded=0;orthogonalLoop=1;jettySize=auto;html=1;entryX=0.5;entryY=0;entryDx=0;entryDy=0;strokeColor=default;align=center;verticalAlign=middle;fontFamily=Helvetica;fontSize=11;fontColor=default;labelBackgroundColor=default;endArrow=none;endFill=0;" edge="1" parent="1" source="mYBLWDvzokNKzUCA3n3M-94" target="mYBLWDvzokNKzUCA3n3M-7">
          <mxGeometry relative="1" as="geometry" />
        </mxCell>
        <mxCell id="mYBLWDvzokNKzUCA3n3M-94" value="Codigo" style="ellipse;whiteSpace=wrap;html=1;align=center;fontStyle=4;fontFamily=Helvetica;fontSize=11;fontColor=default;labelBackgroundColor=default;" vertex="1" parent="1">
          <mxGeometry x="-495" y="-20" width="50" height="30" as="geometry" />
        </mxCell>
        <mxCell id="mYBLWDvzokNKzUCA3n3M-98" value="&lt;b&gt;CLIENTE &lt;/b&gt;(&lt;u&gt;CodCli&lt;/u&gt;, NomeCli, CpfCli, EndCli, ContatoCli)" style="text;html=1;align=center;verticalAlign=middle;resizable=0;points=[];autosize=1;strokeColor=none;fillColor=none;fontFamily=Helvetica;fontSize=11;fontColor=default;labelBackgroundColor=default;" vertex="1" parent="1">
          <mxGeometry x="-627.5" y="260" width="290" height="30" as="geometry" />
        </mxCell>
        <mxCell id="mYBLWDvzokNKzUCA3n3M-99" value="&lt;b&gt;ANIMAL &lt;/b&gt;(&lt;u&gt;CodAnimal&lt;/u&gt;, NomeAnimal, EspcAnimal, RacaAnimal, NascAnimal, CodAtend)" style="text;html=1;align=center;verticalAlign=middle;resizable=0;points=[];autosize=1;strokeColor=none;fillColor=none;fontFamily=Helvetica;fontSize=11;fontColor=default;labelBackgroundColor=default;" vertex="1" parent="1">
          <mxGeometry x="-629.5" y="280" width="450" height="30" as="geometry" />
        </mxCell>
        <mxCell id="mYBLWDvzokNKzUCA3n3M-101" style="edgeStyle=orthogonalEdgeStyle;shape=connector;rounded=0;orthogonalLoop=1;jettySize=auto;html=1;entryX=0.5;entryY=0;entryDx=0;entryDy=0;strokeColor=default;align=center;verticalAlign=middle;fontFamily=Helvetica;fontSize=11;fontColor=default;labelBackgroundColor=default;endArrow=none;endFill=0;" edge="1" parent="1" source="mYBLWDvzokNKzUCA3n3M-100" target="mYBLWDvzokNKzUCA3n3M-5">
          <mxGeometry relative="1" as="geometry" />
        </mxCell>
        <mxCell id="mYBLWDvzokNKzUCA3n3M-100" value="Codigo" style="ellipse;whiteSpace=wrap;html=1;align=center;fontStyle=4;fontFamily=Helvetica;fontSize=11;fontColor=default;labelBackgroundColor=default;" vertex="1" parent="1">
          <mxGeometry x="845" y="-22.5" width="50" height="35" as="geometry" />
        </mxCell>
        <mxCell id="mYBLWDvzokNKzUCA3n3M-102" value="&lt;b&gt;ATENDIMENTO &lt;/b&gt;(&lt;u&gt;CodAtend&lt;/u&gt;, DiagAtend, ObsAtend, DataAtend, HoraAtend)" style="text;html=1;align=center;verticalAlign=middle;resizable=0;points=[];autosize=1;strokeColor=none;fillColor=none;fontFamily=Helvetica;fontSize=11;fontColor=default;labelBackgroundColor=default;" vertex="1" parent="1">
          <mxGeometry x="-627.5" y="300" width="390" height="30" as="geometry" />
        </mxCell>
        <mxCell id="mYBLWDvzokNKzUCA3n3M-103" value="&lt;b&gt;VETERINARIO &lt;/b&gt;(&lt;u&gt;CodVet&lt;/u&gt;, NomeVet, TelVet, EspecVet)" style="text;html=1;align=center;verticalAlign=middle;resizable=0;points=[];autosize=1;strokeColor=none;fillColor=none;fontFamily=Helvetica;fontSize=11;fontColor=default;labelBackgroundColor=default;" vertex="1" parent="1">
          <mxGeometry x="-625.5" y="320" width="280" height="30" as="geometry" />
        </mxCell>
        <mxCell id="mYBLWDvzokNKzUCA3n3M-105" style="edgeStyle=orthogonalEdgeStyle;shape=connector;rounded=0;orthogonalLoop=1;jettySize=auto;html=1;entryX=0.25;entryY=0;entryDx=0;entryDy=0;strokeColor=default;align=center;verticalAlign=middle;fontFamily=Helvetica;fontSize=11;fontColor=default;labelBackgroundColor=default;endArrow=none;endFill=0;" edge="1" parent="1" source="mYBLWDvzokNKzUCA3n3M-104" target="mYBLWDvzokNKzUCA3n3M-1">
          <mxGeometry relative="1" as="geometry" />
        </mxCell>
        <mxCell id="mYBLWDvzokNKzUCA3n3M-104" value="Contato" style="ellipse;shape=doubleEllipse;margin=3;whiteSpace=wrap;html=1;align=center;fontFamily=Helvetica;fontSize=11;fontColor=default;labelBackgroundColor=default;" vertex="1" parent="1">
          <mxGeometry x="-120" y="-1" width="70" height="28" as="geometry" />
        </mxCell>
      </root>
    </mxGraphModel>
  </diagram>
</mxfile>
